<svg width="325" height="335" viewBox="0 0 325 335" fill="none" xmlns="http://www.w3.org/2000/svg">
<g id="Group 1">
<rect id="Rectangle 1" y="62" width="70" height="180" rx="16" fill="white"/>
<rect id="Rectangle 2" x="85" width="70" height="180" rx="16" fill="white"/>
<rect id="Rectangle 3" x="85" y="127" width="70" height="180" rx="16" fill="white"/>
<rect id="Rectangle 4" x="170" y="29" width="70" height="180" rx="16" fill="white"/>
<g id="bi:building">
<g id="Group">
<path id="Vector" fill-rule="evenodd" clip-rule="evenodd" d="M215.144 94.1124C215.253 94.1796 215.343 94.2735 215.405 94.385C215.467 94.4966 215.5 94.6222 215.5 94.7499V117.25C215.5 117.449 215.421 117.64 215.28 117.78C215.14 117.921 214.949 118 214.75 118H210.25C210.051 118 209.86 117.921 209.72 117.78C209.579 117.64 209.5 117.449 209.5 117.25V115H208V117.25C208 117.449 207.921 117.64 207.78 117.78C207.64 117.921 207.449 118 207.25 118H193.75C193.551 118 193.36 117.921 193.22 117.78C193.079 117.64 193 117.449 193 117.25V109C193 108.843 193.05 108.689 193.142 108.562C193.234 108.434 193.364 108.339 193.513 108.289L202 105.46V100.75C202 100.611 202.039 100.474 202.112 100.356C202.185 100.238 202.29 100.142 202.414 100.079L214.414 94.0794C214.528 94.0222 214.656 93.9951 214.784 94.0009C214.911 94.0067 215.036 94.0451 215.144 94.1124V94.1124ZM202 107.041L194.5 109.54V116.5H202V107.041ZM203.5 116.5H206.5V114.25C206.5 114.051 206.579 113.86 206.72 113.72C206.86 113.579 207.051 113.5 207.25 113.5H210.25C210.449 113.5 210.64 113.579 210.78 113.72C210.921 113.86 211 114.051 211 114.25V116.5H214V95.9634L203.5 101.213V116.5Z" fill="black"/>
<path id="Vector_2" d="M196 110.5H197.5V112H196V110.5ZM199 110.5H200.5V112H199V110.5ZM196 113.5H197.5V115H196V113.5ZM199 113.5H200.5V115H199V113.5ZM205 107.5H206.5V109H205V107.5ZM208 107.5H209.5V109H208V107.5ZM205 110.5H206.5V112H205V110.5ZM208 110.5H209.5V112H208V110.5ZM211 107.5H212.5V109H211V107.5ZM211 110.5H212.5V112H211V110.5ZM205 104.5H206.5V106H205V104.5ZM208 104.5H209.5V106H208V104.5ZM211 104.5H212.5V106H211V104.5ZM205 101.5H206.5V103H205V101.5ZM208 101.5H209.5V103H208V101.5ZM211 101.5H212.5V103H211V101.5ZM211 98.5H212.5V100H211V98.5Z" fill="black"/>
</g>
</g>
<rect id="Rectangle 6" x="255" y="91" width="70" height="180" rx="16" fill="white"/>
<g id="bi:inbox">
<path id="Vector_3" d="M285.47 116C285.358 116 285.247 116.026 285.146 116.074C285.044 116.123 284.955 116.194 284.885 116.282L280.31 122H287C287.199 122 287.39 122.079 287.53 122.22C287.671 122.36 287.75 122.551 287.75 122.75C287.75 123.347 287.987 123.919 288.409 124.341C288.831 124.763 289.403 125 290 125C290.597 125 291.169 124.763 291.591 124.341C292.013 123.919 292.25 123.347 292.25 122.75C292.25 122.551 292.329 122.36 292.47 122.22C292.61 122.079 292.801 122 293 122H299.69L295.115 116.282C295.045 116.194 294.956 116.123 294.855 116.074C294.754 116.026 294.643 116 294.53 116H285.47ZM300.401 123.5H293.675C293.503 124.348 293.043 125.11 292.373 125.657C291.704 126.205 290.865 126.504 290 126.504C289.135 126.504 288.297 126.205 287.627 125.657C286.957 125.11 286.497 124.348 286.325 123.5H279.599L280.079 127.343C280.102 127.525 280.19 127.692 280.327 127.813C280.465 127.934 280.642 128 280.825 128H299.176C299.358 128 299.535 127.933 299.672 127.812C299.809 127.691 299.897 127.524 299.92 127.343L300.4 123.5H300.401ZM283.714 115.345C283.925 115.081 284.192 114.868 284.496 114.722C284.801 114.576 285.134 114.5 285.472 114.5H294.529C294.866 114.5 295.2 114.576 295.504 114.722C295.808 114.868 296.076 115.081 296.287 115.345L301.837 122.282C301.899 122.36 301.945 122.45 301.972 122.547C301.999 122.643 302.007 122.744 301.994 122.843L301.409 127.529C301.341 128.073 301.077 128.574 300.665 128.937C300.254 129.3 299.724 129.5 299.176 129.5H280.825C280.276 129.5 279.746 129.3 279.335 128.937C278.924 128.574 278.659 128.073 278.591 127.529L278.006 122.843C277.994 122.744 278.002 122.643 278.029 122.546C278.056 122.45 278.103 122.36 278.165 122.282L283.715 115.345H283.714Z" fill="black"/>
</g>
<rect id="Rectangle 5" x="170" y="155" width="70" height="180" rx="16" fill="white"/>
<path id="Boletim" d="M192.576 217.144C192.875 217.197 193.128 217.355 193.336 217.616C193.544 217.877 193.648 218.173 193.648 218.504C193.648 218.787 193.573 219.043 193.424 219.272C193.28 219.496 193.069 219.675 192.792 219.808C192.515 219.936 192.192 220 191.824 220H189.6V214.44H191.72C192.099 214.44 192.424 214.504 192.696 214.632C192.968 214.76 193.173 214.933 193.312 215.152C193.451 215.365 193.52 215.605 193.52 215.872C193.52 216.192 193.435 216.459 193.264 216.672C193.093 216.885 192.864 217.043 192.576 217.144ZM190.512 216.776H191.64C191.939 216.776 192.171 216.709 192.336 216.576C192.507 216.437 192.592 216.24 192.592 215.984C192.592 215.733 192.507 215.539 192.336 215.4C192.171 215.256 191.939 215.184 191.64 215.184H190.512V216.776ZM191.744 219.256C192.053 219.256 192.296 219.181 192.472 219.032C192.648 218.883 192.736 218.675 192.736 218.408C192.736 218.136 192.643 217.92 192.456 217.76C192.269 217.6 192.021 217.52 191.712 217.52H190.512V219.256H191.744ZM196.551 220.072C196.135 220.072 195.759 219.979 195.423 219.792C195.087 219.6 194.823 219.333 194.631 218.992C194.439 218.645 194.343 218.245 194.343 217.792C194.343 217.344 194.442 216.947 194.639 216.6C194.836 216.253 195.106 215.987 195.447 215.8C195.788 215.613 196.17 215.52 196.591 215.52C197.012 215.52 197.394 215.613 197.735 215.8C198.076 215.987 198.346 216.253 198.543 216.6C198.74 216.947 198.839 217.344 198.839 217.792C198.839 218.24 198.738 218.637 198.535 218.984C198.332 219.331 198.055 219.6 197.703 219.792C197.356 219.979 196.972 220.072 196.551 220.072ZM196.551 219.28C196.786 219.28 197.004 219.224 197.207 219.112C197.415 219 197.583 218.832 197.711 218.608C197.839 218.384 197.903 218.112 197.903 217.792C197.903 217.472 197.842 217.203 197.719 216.984C197.596 216.76 197.434 216.592 197.231 216.48C197.028 216.368 196.81 216.312 196.575 216.312C196.34 216.312 196.122 216.368 195.919 216.48C195.722 216.592 195.564 216.76 195.447 216.984C195.33 217.203 195.271 217.472 195.271 217.792C195.271 218.267 195.391 218.635 195.631 218.896C195.876 219.152 196.183 219.28 196.551 219.28ZM200.653 214.08V220H199.741V214.08H200.653ZM205.89 217.688C205.89 217.853 205.879 218.003 205.858 218.136H202.49C202.517 218.488 202.647 218.771 202.882 218.984C203.117 219.197 203.405 219.304 203.746 219.304C204.237 219.304 204.583 219.099 204.786 218.688H205.77C205.637 219.093 205.394 219.427 205.042 219.688C204.695 219.944 204.263 220.072 203.746 220.072C203.325 220.072 202.946 219.979 202.61 219.792C202.279 219.6 202.018 219.333 201.826 218.992C201.639 218.645 201.546 218.245 201.546 217.792C201.546 217.339 201.637 216.941 201.818 216.6C202.005 216.253 202.263 215.987 202.594 215.8C202.93 215.613 203.314 215.52 203.746 215.52C204.162 215.52 204.533 215.611 204.858 215.792C205.183 215.973 205.437 216.229 205.618 216.56C205.799 216.885 205.89 217.261 205.89 217.688ZM204.938 217.4C204.933 217.064 204.813 216.795 204.578 216.592C204.343 216.389 204.053 216.288 203.706 216.288C203.391 216.288 203.122 216.389 202.898 216.592C202.674 216.789 202.541 217.059 202.498 217.4H204.938ZM207.852 216.336V218.776C207.852 218.941 207.889 219.061 207.964 219.136C208.044 219.205 208.177 219.24 208.364 219.24H208.924V220H208.204C207.793 220 207.478 219.904 207.26 219.712C207.041 219.52 206.932 219.208 206.932 218.776V216.336H206.412V215.592H206.932V214.496H207.852V215.592H208.924V216.336H207.852ZM210.228 215.008C210.063 215.008 209.924 214.952 209.812 214.84C209.7 214.728 209.644 214.589 209.644 214.424C209.644 214.259 209.7 214.12 209.812 214.008C209.924 213.896 210.063 213.84 210.228 213.84C210.388 213.84 210.524 213.896 210.636 214.008C210.748 214.12 210.804 214.259 210.804 214.424C210.804 214.589 210.748 214.728 210.636 214.84C210.524 214.952 210.388 215.008 210.228 215.008ZM210.676 215.592V220H209.764V215.592H210.676ZM217.209 215.52C217.556 215.52 217.865 215.592 218.137 215.736C218.415 215.88 218.631 216.093 218.785 216.376C218.945 216.659 219.025 217 219.025 217.4V220H218.121V217.536C218.121 217.141 218.023 216.84 217.825 216.632C217.628 216.419 217.359 216.312 217.017 216.312C216.676 216.312 216.404 216.419 216.201 216.632C216.004 216.84 215.905 217.141 215.905 217.536V220H215.001V217.536C215.001 217.141 214.903 216.84 214.705 216.632C214.508 216.419 214.239 216.312 213.897 216.312C213.556 216.312 213.284 216.419 213.081 216.632C212.884 216.84 212.785 217.141 212.785 217.536V220H211.873V215.592H212.785V216.096C212.935 215.915 213.124 215.773 213.353 215.672C213.583 215.571 213.828 215.52 214.089 215.52C214.441 215.52 214.756 215.595 215.033 215.744C215.311 215.893 215.524 216.109 215.673 216.392C215.807 216.125 216.015 215.915 216.297 215.76C216.58 215.6 216.884 215.52 217.209 215.52Z" fill="black"/>
<g id="ant-design:pie-chart-outlined">
<path id="Vector_4" d="M213.25 189.141H204.859V180.75C204.859 180.647 204.775 180.562 204.672 180.562H204.063C202.831 180.56 201.612 180.802 200.474 181.273C199.337 181.744 198.304 182.435 197.434 183.307C196.578 184.161 195.896 185.172 195.426 186.286C194.936 187.441 194.685 188.683 194.688 189.937C194.685 191.169 194.927 192.388 195.398 193.526C195.869 194.663 196.56 195.696 197.432 196.566C198.292 197.426 199.295 198.103 200.411 198.574C201.566 199.064 202.808 199.315 204.063 199.312C205.294 199.314 206.513 199.073 207.651 198.602C208.788 198.131 209.821 197.44 210.691 196.568C211.551 195.708 212.228 194.705 212.699 193.589C213.189 192.434 213.44 191.192 213.438 189.937V189.328C213.438 189.225 213.353 189.141 213.25 189.141ZM209.54 195.464C208.814 196.184 207.953 196.754 207.007 197.141C206.061 197.528 205.047 197.724 204.025 197.719C201.96 197.709 200.02 196.901 198.559 195.441C197.09 193.971 196.281 192.016 196.281 189.937C196.281 187.859 197.09 185.904 198.559 184.434C199.839 183.155 201.487 182.374 203.266 182.196V190.734H211.804C211.623 192.523 210.836 194.18 209.54 195.464V195.464ZM215.313 187.837L215.252 187.177C215.052 185.018 214.094 182.981 212.552 181.444C211.008 179.903 208.976 178.95 206.805 178.748L206.141 178.687C206.031 178.678 205.938 178.762 205.938 178.873V187.875C205.938 187.978 206.022 188.062 206.125 188.062L215.125 188.039C215.235 188.039 215.322 187.945 215.313 187.837ZM207.527 186.473V180.459C209.003 180.768 210.358 181.5 211.427 182.564C212.498 183.633 213.231 184.992 213.536 186.457L207.527 186.473Z" fill="black"/>
</g>
<g id="bi:calendar-date" clip-path="url(#clip0_922_1212)">
<g id="Group_2">
<path id="Vector_5" d="M117.668 167.532V159.531H116.718C116.038 159.894 115.381 160.297 114.75 160.74V161.783C115.312 161.397 116.203 160.853 116.637 160.617H116.655V167.532H117.668V167.532ZM119.449 165.575C119.52 166.535 120.341 167.683 122.004 167.683C123.891 167.683 125.004 166.085 125.004 163.377C125.004 160.476 123.833 159.375 122.075 159.375C120.686 159.375 119.379 160.383 119.379 162.089C119.379 163.828 120.615 164.744 121.893 164.744C123.012 164.744 123.738 164.179 123.968 163.558H124.008C124.002 165.532 123.316 166.805 122.05 166.805C121.054 166.805 120.539 166.13 120.476 165.575H119.449V165.575ZM123.879 162.099C123.879 163.143 123.041 163.869 122.103 163.869C121.202 163.869 120.387 163.294 120.387 162.069C120.387 160.834 121.26 160.254 122.139 160.254C123.088 160.254 123.879 160.851 123.879 162.099Z" fill="black"/>
<path id="Vector_6" d="M113.25 150C113.449 150 113.64 150.079 113.78 150.22C113.921 150.36 114 150.551 114 150.75V151.5H126V150.75C126 150.551 126.079 150.36 126.22 150.22C126.36 150.079 126.551 150 126.75 150C126.949 150 127.14 150.079 127.28 150.22C127.421 150.36 127.5 150.551 127.5 150.75V151.5H129C129.796 151.5 130.559 151.816 131.121 152.379C131.684 152.941 132 153.704 132 154.5V171C132 171.796 131.684 172.559 131.121 173.121C130.559 173.684 129.796 174 129 174H111C110.204 174 109.441 173.684 108.879 173.121C108.316 172.559 108 171.796 108 171V154.5C108 153.704 108.316 152.941 108.879 152.379C109.441 151.816 110.204 151.5 111 151.5H112.5V150.75C112.5 150.551 112.579 150.36 112.72 150.22C112.86 150.079 113.051 150 113.25 150V150ZM109.5 156V171C109.5 171.398 109.658 171.779 109.939 172.061C110.221 172.342 110.602 172.5 111 172.5H129C129.398 172.5 129.779 172.342 130.061 172.061C130.342 171.779 130.5 171.398 130.5 171V156H109.5Z" fill="black"/>
</g>
</g>
<g id="fluent:people-team-16-regular">
<path id="Vector_7" d="M117.003 70.0001C117.003 69.2052 117.319 68.4429 117.881 67.8809C118.443 67.3188 119.205 67.0031 120 67.0031C120.795 67.0031 121.557 67.3188 122.119 67.8809C122.681 68.4429 122.997 69.2052 122.997 70.0001C122.997 70.7949 122.681 71.5572 122.119 72.1193C121.557 72.6813 120.795 72.9971 120 72.9971C119.205 72.9971 118.443 72.6813 117.881 72.1193C117.319 71.5572 117.003 70.7949 117.003 70.0001V70.0001ZM120 68.5031C119.803 68.5031 119.609 68.5418 119.427 68.617C119.245 68.6922 119.08 68.8025 118.941 68.9415C118.802 69.0805 118.692 69.2456 118.617 69.4272C118.542 69.6088 118.503 69.8035 118.503 70.0001C118.503 70.1966 118.542 70.3913 118.617 70.5729C118.692 70.7546 118.802 70.9196 118.941 71.0586C119.08 71.1976 119.245 71.3079 119.427 71.3831C119.609 71.4583 119.803 71.4971 120 71.4971C120.397 71.4971 120.778 71.3393 121.059 71.0586C121.339 70.7778 121.497 70.3971 121.497 70.0001C121.497 69.603 121.339 69.2223 121.059 68.9415C120.778 68.6608 120.397 68.5031 120 68.5031V68.5031ZM124.5 70.7501C124.5 70.4546 124.558 70.162 124.671 69.889C124.784 69.616 124.95 69.368 125.159 69.1591C125.368 68.9501 125.616 68.7844 125.889 68.6713C126.162 68.5582 126.455 68.5001 126.75 68.5001C127.045 68.5001 127.338 68.5582 127.611 68.6713C127.884 68.7844 128.132 68.9501 128.341 69.1591C128.55 69.368 128.716 69.616 128.829 69.889C128.942 70.162 129 70.4546 129 70.7501C129 71.3468 128.763 71.9191 128.341 72.341C127.919 72.763 127.347 73.0001 126.75 73.0001C126.153 73.0001 125.581 72.763 125.159 72.341C124.737 71.9191 124.5 71.3468 124.5 70.7501ZM126.75 70.0001C126.551 70.0001 126.36 70.0791 126.22 70.2197C126.079 70.3604 126 70.5511 126 70.7501C126 70.949 126.079 71.1397 126.22 71.2804C126.36 71.421 126.551 71.5001 126.75 71.5001C126.949 71.5001 127.14 71.421 127.28 71.2804C127.421 71.1397 127.5 70.949 127.5 70.7501C127.5 70.5511 127.421 70.3604 127.28 70.2197C127.14 70.0791 126.949 70.0001 126.75 70.0001ZM113.25 68.5001C112.653 68.5001 112.081 68.7371 111.659 69.1591C111.237 69.581 111 70.1533 111 70.7501C111 71.3468 111.237 71.9191 111.659 72.341C112.081 72.763 112.653 73.0001 113.25 73.0001C113.847 73.0001 114.419 72.763 114.841 72.341C115.263 71.9191 115.5 71.3468 115.5 70.7501C115.5 70.1533 115.263 69.581 114.841 69.1591C114.419 68.7371 113.847 68.5001 113.25 68.5001ZM112.5 70.7501C112.5 70.5511 112.579 70.3604 112.72 70.2197C112.86 70.0791 113.051 70.0001 113.25 70.0001C113.449 70.0001 113.64 70.0791 113.78 70.2197C113.921 70.3604 114 70.5511 114 70.7501C114 70.949 113.921 71.1397 113.78 71.2804C113.64 71.421 113.449 71.5001 113.25 71.5001C113.051 71.5001 112.86 71.421 112.72 71.2804C112.579 71.1397 112.5 70.949 112.5 70.7501ZM114.402 74.5001C114.138 74.9558 113.999 75.4733 114 76.0001H111V79.7501C111 80.1232 111.093 80.4904 111.27 80.8188C111.447 81.1472 111.703 81.4264 112.015 81.6313C112.326 81.8361 112.684 81.9602 113.056 81.9924C113.428 82.0246 113.802 81.9638 114.144 81.8156C114.255 82.3121 114.429 82.7861 114.654 83.2286C114.085 83.4584 113.468 83.545 112.857 83.4807C112.247 83.4163 111.661 83.2031 111.152 82.8596C110.643 82.5161 110.226 82.053 109.938 81.5108C109.65 80.9686 109.5 80.364 109.5 79.7501V76.0001C109.5 75.6022 109.658 75.2207 109.939 74.9394C110.221 74.6581 110.602 74.5001 111 74.5001H114.402ZM125.346 83.2286C125.915 83.4584 126.532 83.545 127.143 83.4807C127.753 83.4163 128.339 83.2031 128.848 82.8596C129.357 82.5161 129.774 82.053 130.062 81.5108C130.35 80.9686 130.5 80.364 130.5 79.7501V76.0001C130.5 75.6022 130.342 75.2207 130.061 74.9394C129.779 74.6581 129.398 74.5001 129 74.5001H125.598C125.853 74.9411 126 75.4526 126 76.0001H129V79.7501C129 80.1232 128.907 80.4904 128.73 80.8188C128.553 81.1472 128.297 81.4264 127.985 81.6313C127.674 81.8361 127.316 81.9602 126.944 81.9924C126.572 82.0246 126.198 81.9638 125.856 81.8156C125.744 82.3121 125.571 82.7861 125.346 83.2286V83.2286ZM117 74.4986C116.602 74.4986 116.221 74.6566 115.939 74.9379C115.658 75.2192 115.5 75.6007 115.5 75.9986V80.5001C115.5 81.6935 115.974 82.8381 116.818 83.682C117.662 84.5259 118.807 85.0001 120 85.0001C121.193 85.0001 122.338 84.5259 123.182 83.682C124.026 82.8381 124.5 81.6935 124.5 80.5001V76.0001C124.5 75.6022 124.342 75.2207 124.061 74.9394C123.779 74.6581 123.398 74.5001 123 74.5001H117V74.4986ZM117 75.9986H123V80.5001C123 81.2957 122.684 82.0588 122.121 82.6214C121.559 83.184 120.796 83.5001 120 83.5001C119.204 83.5001 118.441 83.184 117.879 82.6214C117.316 82.0588 117 81.2957 117 80.5001V76.0001V75.9986Z" fill="black"/>
</g>
<g id="iconoir:task-list">
<path id="Vector_8" d="M31.0002 93H45.6669M24.0669 92.7333L25.1336 93.8L27.8002 91.1333M24.0669 100.733L25.1336 101.8L27.8002 99.1333M24.0669 108.733L25.1336 109.8L27.8002 107.133M31.0002 101H45.6669M31.0002 109H45.6669" stroke="black" stroke-width="1.5" stroke-linecap="round" stroke-linejoin="round"/>
<circle id="Ellipse 1" cx="47.6665" cy="90" r="3" fill="#FB6483"/>
</g>
<path id="Tarefas" d="M23.192 124.44V125.184H21.712V130H20.8V125.184H19.312V124.44H23.192ZM23.8116 127.776C23.8116 127.333 23.9023 126.941 24.0836 126.6C24.2703 126.259 24.521 125.995 24.8356 125.808C25.1556 125.616 25.5076 125.52 25.8916 125.52C26.2383 125.52 26.5396 125.589 26.7956 125.728C27.057 125.861 27.265 126.029 27.4196 126.232V125.592H28.3396V130H27.4196V129.344C27.265 129.552 27.0543 129.725 26.7876 129.864C26.521 130.003 26.217 130.072 25.8756 130.072C25.497 130.072 25.1503 129.976 24.8356 129.784C24.521 129.587 24.2703 129.315 24.0836 128.968C23.9023 128.616 23.8116 128.219 23.8116 127.776ZM27.4196 127.792C27.4196 127.488 27.3556 127.224 27.2276 127C27.105 126.776 26.9423 126.605 26.7396 126.488C26.537 126.371 26.3183 126.312 26.0836 126.312C25.849 126.312 25.6303 126.371 25.4276 126.488C25.225 126.6 25.0596 126.768 24.9316 126.992C24.809 127.211 24.7476 127.472 24.7476 127.776C24.7476 128.08 24.809 128.347 24.9316 128.576C25.0596 128.805 25.225 128.981 25.4276 129.104C25.6356 129.221 25.8543 129.28 26.0836 129.28C26.3183 129.28 26.537 129.221 26.7396 129.104C26.9423 128.987 27.105 128.816 27.2276 128.592C27.3556 128.363 27.4196 128.096 27.4196 127.792ZM30.4495 126.232C30.5828 126.008 30.7588 125.835 30.9775 125.712C31.2015 125.584 31.4655 125.52 31.7695 125.52V126.464H31.5375C31.1802 126.464 30.9082 126.555 30.7215 126.736C30.5402 126.917 30.4495 127.232 30.4495 127.68V130H29.5375V125.592H30.4495V126.232ZM36.6478 127.688C36.6478 127.853 36.6371 128.003 36.6158 128.136H33.2478C33.2745 128.488 33.4051 128.771 33.6398 128.984C33.8745 129.197 34.1625 129.304 34.5038 129.304C34.9945 129.304 35.3411 129.099 35.5438 128.688H36.5278C36.3945 129.093 36.1518 129.427 35.7998 129.688C35.4531 129.944 35.0211 130.072 34.5038 130.072C34.0825 130.072 33.7038 129.979 33.3678 129.792C33.0371 129.6 32.7758 129.333 32.5838 128.992C32.3971 128.645 32.3038 128.245 32.3038 127.792C32.3038 127.339 32.3945 126.941 32.5758 126.6C32.7625 126.253 33.0211 125.987 33.3518 125.8C33.6878 125.613 34.0718 125.52 34.5038 125.52C34.9198 125.52 35.2905 125.611 35.6158 125.792C35.9411 125.973 36.1945 126.229 36.3758 126.56C36.5571 126.885 36.6478 127.261 36.6478 127.688ZM35.6958 127.4C35.6905 127.064 35.5705 126.795 35.3358 126.592C35.1011 126.389 34.8105 126.288 34.4638 126.288C34.1491 126.288 33.8798 126.389 33.6558 126.592C33.4318 126.789 33.2985 127.059 33.2558 127.4H35.6958ZM39.3933 126.336H38.5773V130H37.6573V126.336H37.1373V125.592H37.6573V125.28C37.6573 124.773 37.7906 124.405 38.0573 124.176C38.3293 123.941 38.7533 123.824 39.3293 123.824V124.584C39.052 124.584 38.8573 124.637 38.7453 124.744C38.6333 124.845 38.5773 125.024 38.5773 125.28V125.592H39.3933V126.336ZM39.8976 127.776C39.8976 127.333 39.9882 126.941 40.1696 126.6C40.3562 126.259 40.6069 125.995 40.9216 125.808C41.2416 125.616 41.5936 125.52 41.9776 125.52C42.3242 125.52 42.6256 125.589 42.8816 125.728C43.1429 125.861 43.3509 126.029 43.5056 126.232V125.592H44.4256V130H43.5056V129.344C43.3509 129.552 43.1402 129.725 42.8736 129.864C42.6069 130.003 42.3029 130.072 41.9616 130.072C41.5829 130.072 41.2362 129.976 40.9216 129.784C40.6069 129.587 40.3562 129.315 40.1696 128.968C39.9882 128.616 39.8976 128.219 39.8976 127.776ZM43.5056 127.792C43.5056 127.488 43.4416 127.224 43.3136 127C43.1909 126.776 43.0282 126.605 42.8256 126.488C42.6229 126.371 42.4042 126.312 42.1696 126.312C41.9349 126.312 41.7162 126.371 41.5136 126.488C41.3109 126.6 41.1456 126.768 41.0176 126.992C40.8949 127.211 40.8336 127.472 40.8336 127.776C40.8336 128.08 40.8949 128.347 41.0176 128.576C41.1456 128.805 41.3109 128.981 41.5136 129.104C41.7216 129.221 41.9402 129.28 42.1696 129.28C42.4042 129.28 42.6229 129.221 42.8256 129.104C43.0282 128.987 43.1909 128.816 43.3136 128.592C43.4416 128.363 43.5056 128.096 43.5056 127.792ZM47.2234 130.072C46.8768 130.072 46.5648 130.011 46.2874 129.888C46.0154 129.76 45.7994 129.589 45.6394 129.376C45.4794 129.157 45.3941 128.915 45.3834 128.648H46.3274C46.3434 128.835 46.4314 128.992 46.5914 129.12C46.7568 129.243 46.9621 129.304 47.2074 129.304C47.4634 129.304 47.6608 129.256 47.7994 129.16C47.9434 129.059 48.0154 128.931 48.0154 128.776C48.0154 128.611 47.9354 128.488 47.7754 128.408C47.6208 128.328 47.3728 128.24 47.0314 128.144C46.7008 128.053 46.4314 127.965 46.2234 127.88C46.0154 127.795 45.8341 127.664 45.6794 127.488C45.5301 127.312 45.4554 127.08 45.4554 126.792C45.4554 126.557 45.5248 126.344 45.6634 126.152C45.8021 125.955 45.9994 125.8 46.2554 125.688C46.5168 125.576 46.8154 125.52 47.1514 125.52C47.6528 125.52 48.0554 125.648 48.3594 125.904C48.6688 126.155 48.8341 126.499 48.8554 126.936H47.9434C47.9274 126.739 47.8474 126.581 47.7034 126.464C47.5594 126.347 47.3648 126.288 47.1194 126.288C46.8794 126.288 46.6954 126.333 46.5674 126.424C46.4394 126.515 46.3754 126.635 46.3754 126.784C46.3754 126.901 46.4181 127 46.5034 127.08C46.5888 127.16 46.6928 127.224 46.8154 127.272C46.9381 127.315 47.1194 127.371 47.3594 127.44C47.6794 127.525 47.9408 127.613 48.1434 127.704C48.3514 127.789 48.5301 127.917 48.6794 128.088C48.8288 128.259 48.9061 128.485 48.9114 128.768C48.9114 129.019 48.8421 129.243 48.7034 129.44C48.5648 129.637 48.3674 129.792 48.1114 129.904C47.8608 130.016 47.5648 130.072 47.2234 130.072Z" fill="black"/>
<path id="Agenda" d="M107.952 190.864H105.624L105.224 192H104.272L106.264 186.432H107.32L109.312 192H108.352L107.952 190.864ZM107.696 190.12L106.792 187.536L105.88 190.12H107.696ZM111.954 187.52C112.295 187.52 112.597 187.589 112.858 187.728C113.125 187.861 113.333 188.029 113.482 188.232V187.592H114.402V192.072C114.402 192.477 114.317 192.837 114.146 193.152C113.975 193.472 113.727 193.723 113.402 193.904C113.082 194.085 112.698 194.176 112.25 194.176C111.653 194.176 111.157 194.035 110.762 193.752C110.367 193.475 110.143 193.096 110.09 192.616H110.994C111.063 192.845 111.21 193.029 111.434 193.168C111.663 193.312 111.935 193.384 112.25 193.384C112.618 193.384 112.914 193.272 113.138 193.048C113.367 192.824 113.482 192.499 113.482 192.072V191.336C113.327 191.544 113.117 191.72 112.85 191.864C112.589 192.003 112.29 192.072 111.954 192.072C111.57 192.072 111.218 191.976 110.898 191.784C110.583 191.587 110.333 191.315 110.146 190.968C109.965 190.616 109.874 190.219 109.874 189.776C109.874 189.333 109.965 188.941 110.146 188.6C110.333 188.259 110.583 187.995 110.898 187.808C111.218 187.616 111.57 187.52 111.954 187.52ZM113.482 189.792C113.482 189.488 113.418 189.224 113.29 189C113.167 188.776 113.005 188.605 112.802 188.488C112.599 188.371 112.381 188.312 112.146 188.312C111.911 188.312 111.693 188.371 111.49 188.488C111.287 188.6 111.122 188.768 110.994 188.992C110.871 189.211 110.81 189.472 110.81 189.776C110.81 190.08 110.871 190.347 110.994 190.576C111.122 190.805 111.287 190.981 111.49 191.104C111.698 191.221 111.917 191.28 112.146 191.28C112.381 191.28 112.599 191.221 112.802 191.104C113.005 190.987 113.167 190.816 113.29 190.592C113.418 190.363 113.482 190.096 113.482 189.792ZM119.64 189.688C119.64 189.853 119.629 190.003 119.608 190.136H116.24C116.267 190.488 116.397 190.771 116.632 190.984C116.867 191.197 117.155 191.304 117.496 191.304C117.987 191.304 118.333 191.099 118.536 190.688H119.52C119.387 191.093 119.144 191.427 118.792 191.688C118.445 191.944 118.013 192.072 117.496 192.072C117.075 192.072 116.696 191.979 116.36 191.792C116.029 191.6 115.768 191.333 115.576 190.992C115.389 190.645 115.296 190.245 115.296 189.792C115.296 189.339 115.387 188.941 115.568 188.6C115.755 188.253 116.013 187.987 116.344 187.8C116.68 187.613 117.064 187.52 117.496 187.52C117.912 187.52 118.283 187.611 118.608 187.792C118.933 187.973 119.187 188.229 119.368 188.56C119.549 188.885 119.64 189.261 119.64 189.688ZM118.688 189.4C118.683 189.064 118.563 188.795 118.328 188.592C118.093 188.389 117.803 188.288 117.456 188.288C117.141 188.288 116.872 188.389 116.648 188.592C116.424 188.789 116.291 189.059 116.248 189.4H118.688ZM122.762 187.52C123.108 187.52 123.418 187.592 123.69 187.736C123.967 187.88 124.183 188.093 124.338 188.376C124.492 188.659 124.57 189 124.57 189.4V192H123.666V189.536C123.666 189.141 123.567 188.84 123.37 188.632C123.172 188.419 122.903 188.312 122.562 188.312C122.22 188.312 121.948 188.419 121.746 188.632C121.548 188.84 121.45 189.141 121.45 189.536V192H120.538V187.592H121.45V188.096C121.599 187.915 121.788 187.773 122.018 187.672C122.252 187.571 122.5 187.52 122.762 187.52ZM125.429 189.776C125.429 189.333 125.519 188.941 125.701 188.6C125.887 188.259 126.138 187.995 126.453 187.808C126.773 187.616 127.127 187.52 127.517 187.52C127.805 187.52 128.087 187.584 128.365 187.712C128.647 187.835 128.871 188 129.037 188.208V186.08H129.957V192H129.037V191.336C128.887 191.549 128.679 191.725 128.413 191.864C128.151 192.003 127.85 192.072 127.509 192.072C127.125 192.072 126.773 191.976 126.453 191.784C126.138 191.587 125.887 191.315 125.701 190.968C125.519 190.616 125.429 190.219 125.429 189.776ZM129.037 189.792C129.037 189.488 128.973 189.224 128.845 189C128.722 188.776 128.559 188.605 128.357 188.488C128.154 188.371 127.935 188.312 127.701 188.312C127.466 188.312 127.247 188.371 127.045 188.488C126.842 188.6 126.677 188.768 126.549 188.992C126.426 189.211 126.365 189.472 126.365 189.776C126.365 190.08 126.426 190.347 126.549 190.576C126.677 190.805 126.842 190.981 127.045 191.104C127.253 191.221 127.471 191.28 127.701 191.28C127.935 191.28 128.154 191.221 128.357 191.104C128.559 190.987 128.722 190.816 128.845 190.592C128.973 190.363 129.037 190.096 129.037 189.792ZM130.851 189.776C130.851 189.333 130.941 188.941 131.123 188.6C131.309 188.259 131.56 187.995 131.875 187.808C132.195 187.616 132.547 187.52 132.931 187.52C133.277 187.52 133.579 187.589 133.835 187.728C134.096 187.861 134.304 188.029 134.459 188.232V187.592H135.379V192H134.459V191.344C134.304 191.552 134.093 191.725 133.827 191.864C133.56 192.003 133.256 192.072 132.915 192.072C132.536 192.072 132.189 191.976 131.875 191.784C131.56 191.587 131.309 191.315 131.123 190.968C130.941 190.616 130.851 190.219 130.851 189.776ZM134.459 189.792C134.459 189.488 134.395 189.224 134.267 189C134.144 188.776 133.981 188.605 133.779 188.488C133.576 188.371 133.357 188.312 133.123 188.312C132.888 188.312 132.669 188.371 132.467 188.488C132.264 188.6 132.099 188.768 131.971 188.992C131.848 189.211 131.787 189.472 131.787 189.776C131.787 190.08 131.848 190.347 131.971 190.576C132.099 190.805 132.264 190.981 132.467 191.104C132.675 191.221 132.893 191.28 133.123 191.28C133.357 191.28 133.576 191.221 133.779 191.104C133.981 190.987 134.144 190.816 134.267 190.592C134.395 190.363 134.459 190.096 134.459 189.792Z" fill="black"/>
<path id="Avisos" d="M280.952 148.864H278.624L278.224 150H277.272L279.264 144.432H280.32L282.312 150H281.352L280.952 148.864ZM280.696 148.12L279.792 145.536L278.88 148.12H280.696ZM284.882 149.184L286.13 145.592H287.098L285.418 150H284.33L282.658 145.592H283.634L284.882 149.184ZM288.252 145.008C288.086 145.008 287.948 144.952 287.836 144.84C287.724 144.728 287.668 144.589 287.668 144.424C287.668 144.259 287.724 144.12 287.836 144.008C287.948 143.896 288.086 143.84 288.252 143.84C288.412 143.84 288.548 143.896 288.66 144.008C288.772 144.12 288.828 144.259 288.828 144.424C288.828 144.589 288.772 144.728 288.66 144.84C288.548 144.952 288.412 145.008 288.252 145.008ZM288.7 145.592V150H287.788V145.592H288.7ZM291.497 150.072C291.15 150.072 290.838 150.011 290.561 149.888C290.289 149.76 290.073 149.589 289.913 149.376C289.753 149.157 289.668 148.915 289.657 148.648H290.601C290.617 148.835 290.705 148.992 290.865 149.12C291.03 149.243 291.236 149.304 291.481 149.304C291.737 149.304 291.934 149.256 292.073 149.16C292.217 149.059 292.289 148.931 292.289 148.776C292.289 148.611 292.209 148.488 292.049 148.408C291.894 148.328 291.646 148.24 291.305 148.144C290.974 148.053 290.705 147.965 290.497 147.88C290.289 147.795 290.108 147.664 289.953 147.488C289.804 147.312 289.729 147.08 289.729 146.792C289.729 146.557 289.798 146.344 289.937 146.152C290.076 145.955 290.273 145.8 290.529 145.688C290.79 145.576 291.089 145.52 291.425 145.52C291.926 145.52 292.329 145.648 292.633 145.904C292.942 146.155 293.108 146.499 293.129 146.936H292.217C292.201 146.739 292.121 146.581 291.977 146.464C291.833 146.347 291.638 146.288 291.393 146.288C291.153 146.288 290.969 146.333 290.841 146.424C290.713 146.515 290.649 146.635 290.649 146.784C290.649 146.901 290.692 147 290.777 147.08C290.862 147.16 290.966 147.224 291.089 147.272C291.212 147.315 291.393 147.371 291.633 147.44C291.953 147.525 292.214 147.613 292.417 147.704C292.625 147.789 292.804 147.917 292.953 148.088C293.102 148.259 293.18 148.485 293.185 148.768C293.185 149.019 293.116 149.243 292.977 149.44C292.838 149.637 292.641 149.792 292.385 149.904C292.134 150.016 291.838 150.072 291.497 150.072ZM296.082 150.072C295.666 150.072 295.29 149.979 294.954 149.792C294.618 149.6 294.354 149.333 294.162 148.992C293.97 148.645 293.874 148.245 293.874 147.792C293.874 147.344 293.973 146.947 294.17 146.6C294.368 146.253 294.637 145.987 294.978 145.8C295.32 145.613 295.701 145.52 296.122 145.52C296.544 145.52 296.925 145.613 297.266 145.8C297.608 145.987 297.877 146.253 298.074 146.6C298.272 146.947 298.37 147.344 298.37 147.792C298.37 148.24 298.269 148.637 298.066 148.984C297.864 149.331 297.586 149.6 297.234 149.792C296.888 149.979 296.504 150.072 296.082 150.072ZM296.082 149.28C296.317 149.28 296.536 149.224 296.738 149.112C296.946 149 297.114 148.832 297.242 148.608C297.37 148.384 297.434 148.112 297.434 147.792C297.434 147.472 297.373 147.203 297.25 146.984C297.128 146.76 296.965 146.592 296.762 146.48C296.56 146.368 296.341 146.312 296.106 146.312C295.872 146.312 295.653 146.368 295.45 146.48C295.253 146.592 295.096 146.76 294.978 146.984C294.861 147.203 294.802 147.472 294.802 147.792C294.802 148.267 294.922 148.635 295.162 148.896C295.408 149.152 295.714 149.28 296.082 149.28ZM300.872 150.072C300.525 150.072 300.213 150.011 299.936 149.888C299.664 149.76 299.448 149.589 299.288 149.376C299.128 149.157 299.043 148.915 299.032 148.648H299.976C299.992 148.835 300.08 148.992 300.24 149.12C300.405 149.243 300.611 149.304 300.856 149.304C301.112 149.304 301.309 149.256 301.448 149.16C301.592 149.059 301.664 148.931 301.664 148.776C301.664 148.611 301.584 148.488 301.424 148.408C301.269 148.328 301.021 148.24 300.68 148.144C300.349 148.053 300.08 147.965 299.872 147.88C299.664 147.795 299.483 147.664 299.328 147.488C299.179 147.312 299.104 147.08 299.104 146.792C299.104 146.557 299.173 146.344 299.312 146.152C299.451 145.955 299.648 145.8 299.904 145.688C300.165 145.576 300.464 145.52 300.8 145.52C301.301 145.52 301.704 145.648 302.008 145.904C302.317 146.155 302.483 146.499 302.504 146.936H301.592C301.576 146.739 301.496 146.581 301.352 146.464C301.208 146.347 301.013 146.288 300.768 146.288C300.528 146.288 300.344 146.333 300.216 146.424C300.088 146.515 300.024 146.635 300.024 146.784C300.024 146.901 300.067 147 300.152 147.08C300.237 147.16 300.341 147.224 300.464 147.272C300.587 147.315 300.768 147.371 301.008 147.44C301.328 147.525 301.589 147.613 301.792 147.704C302 147.789 302.179 147.917 302.328 148.088C302.477 148.259 302.555 148.485 302.56 148.768C302.56 149.019 302.491 149.243 302.352 149.44C302.213 149.637 302.016 149.792 301.76 149.904C301.509 150.016 301.213 150.072 300.872 150.072Z" fill="black"/>
<path id="Equipes" d="M105.512 48.176V49.808H107.432V50.552H105.512V52.256H107.672V53H104.6V47.432H107.672V48.176H105.512ZM108.491 50.776C108.491 50.3333 108.582 49.9413 108.763 49.6C108.95 49.2587 109.201 48.9947 109.515 48.808C109.835 48.616 110.19 48.52 110.579 48.52C110.921 48.52 111.222 48.5893 111.483 48.728C111.75 48.8667 111.955 49.0347 112.099 49.232V48.592H113.019V55.096H112.099V52.36C111.955 52.5573 111.747 52.7253 111.475 52.864C111.203 53.0027 110.894 53.072 110.547 53.072C110.169 53.072 109.822 52.976 109.507 52.784C109.198 52.5867 108.95 52.3147 108.763 51.968C108.582 51.616 108.491 51.2187 108.491 50.776ZM112.099 50.792C112.099 50.488 112.035 50.224 111.907 50C111.785 49.776 111.622 49.6053 111.419 49.488C111.217 49.3707 110.998 49.312 110.763 49.312C110.529 49.312 110.31 49.3707 110.107 49.488C109.905 49.6 109.739 49.768 109.611 49.992C109.489 50.2107 109.427 50.472 109.427 50.776C109.427 51.08 109.489 51.3467 109.611 51.576C109.739 51.8053 109.905 51.9813 110.107 52.104C110.315 52.2213 110.534 52.28 110.763 52.28C110.998 52.28 111.217 52.2213 111.419 52.104C111.622 51.9867 111.785 51.816 111.907 51.592C112.035 51.3627 112.099 51.096 112.099 50.792ZM118.209 48.592V53H117.297V52.48C117.153 52.6613 116.964 52.8053 116.729 52.912C116.5 53.0133 116.255 53.064 115.993 53.064C115.647 53.064 115.335 52.992 115.057 52.848C114.785 52.704 114.569 52.4907 114.409 52.208C114.255 51.9253 114.177 51.584 114.177 51.184V48.592H115.081V51.048C115.081 51.4427 115.18 51.7467 115.377 51.96C115.575 52.168 115.844 52.272 116.185 52.272C116.527 52.272 116.796 52.168 116.993 51.96C117.196 51.7467 117.297 51.4427 117.297 51.048V48.592H118.209ZM119.877 48.008C119.711 48.008 119.573 47.952 119.461 47.84C119.349 47.728 119.293 47.5893 119.293 47.424C119.293 47.2587 119.349 47.12 119.461 47.008C119.573 46.896 119.711 46.84 119.877 46.84C120.037 46.84 120.173 46.896 120.285 47.008C120.397 47.12 120.453 47.2587 120.453 47.424C120.453 47.5893 120.397 47.728 120.285 47.84C120.173 47.952 120.037 48.008 119.877 48.008ZM120.325 48.592V53H119.413V48.592H120.325ZM122.434 49.24C122.589 49.0373 122.799 48.8667 123.066 48.728C123.333 48.5893 123.634 48.52 123.97 48.52C124.354 48.52 124.703 48.616 125.018 48.808C125.338 48.9947 125.589 49.2587 125.77 49.6C125.951 49.9413 126.042 50.3333 126.042 50.776C126.042 51.2187 125.951 51.616 125.77 51.968C125.589 52.3147 125.338 52.5867 125.018 52.784C124.703 52.976 124.354 53.072 123.97 53.072C123.634 53.072 123.335 53.0053 123.074 52.872C122.813 52.7333 122.599 52.5627 122.434 52.36V55.096H121.522V48.592H122.434V49.24ZM125.114 50.776C125.114 50.472 125.05 50.2107 124.922 49.992C124.799 49.768 124.634 49.6 124.426 49.488C124.223 49.3707 124.005 49.312 123.77 49.312C123.541 49.312 123.322 49.3707 123.114 49.488C122.911 49.6053 122.746 49.776 122.618 50C122.495 50.224 122.434 50.488 122.434 50.792C122.434 51.096 122.495 51.3627 122.618 51.592C122.746 51.816 122.911 51.9867 123.114 52.104C123.322 52.2213 123.541 52.28 123.77 52.28C124.005 52.28 124.223 52.2213 124.426 52.104C124.634 51.9813 124.799 51.8053 124.922 51.576C125.05 51.3467 125.114 51.08 125.114 50.776ZM130.984 50.688C130.984 50.8533 130.973 51.0027 130.952 51.136H127.584C127.61 51.488 127.741 51.7707 127.976 51.984C128.21 52.1973 128.498 52.304 128.84 52.304C129.33 52.304 129.677 52.0987 129.88 51.688H130.864C130.73 52.0933 130.488 52.4267 130.136 52.688C129.789 52.944 129.357 53.072 128.84 53.072C128.418 53.072 128.04 52.9787 127.704 52.792C127.373 52.6 127.112 52.3333 126.92 51.992C126.733 51.6453 126.64 51.2453 126.64 50.792C126.64 50.3387 126.73 49.9413 126.912 49.6C127.098 49.2533 127.357 48.9867 127.688 48.8C128.024 48.6133 128.408 48.52 128.84 48.52C129.256 48.52 129.626 48.6107 129.952 48.792C130.277 48.9733 130.53 49.2293 130.712 49.56C130.893 49.8853 130.984 50.2613 130.984 50.688ZM130.032 50.4C130.026 50.064 129.906 49.7947 129.672 49.592C129.437 49.3893 129.146 49.288 128.8 49.288C128.485 49.288 128.216 49.3893 127.992 49.592C127.768 49.7893 127.634 50.0587 127.592 50.4H130.032ZM133.481 53.072C133.135 53.072 132.823 53.0107 132.545 52.888C132.273 52.76 132.057 52.5893 131.897 52.376C131.737 52.1573 131.652 51.9147 131.641 51.648H132.585C132.601 51.8347 132.689 51.992 132.849 52.12C133.015 52.2427 133.22 52.304 133.465 52.304C133.721 52.304 133.919 52.256 134.057 52.16C134.201 52.0587 134.273 51.9307 134.273 51.776C134.273 51.6107 134.193 51.488 134.033 51.408C133.879 51.328 133.631 51.24 133.289 51.144C132.959 51.0533 132.689 50.9653 132.481 50.88C132.273 50.7947 132.092 50.664 131.937 50.488C131.788 50.312 131.713 50.08 131.713 49.792C131.713 49.5573 131.783 49.344 131.921 49.152C132.06 48.9547 132.257 48.8 132.513 48.688C132.775 48.576 133.073 48.52 133.409 48.52C133.911 48.52 134.313 48.648 134.617 48.904C134.927 49.1547 135.092 49.4987 135.113 49.936H134.201C134.185 49.7387 134.105 49.5813 133.961 49.464C133.817 49.3467 133.623 49.288 133.377 49.288C133.137 49.288 132.953 49.3333 132.825 49.424C132.697 49.5147 132.633 49.6347 132.633 49.784C132.633 49.9013 132.676 50 132.761 50.08C132.847 50.16 132.951 50.224 133.073 50.272C133.196 50.3147 133.377 50.3707 133.617 50.44C133.937 50.5253 134.199 50.6133 134.401 50.704C134.609 50.7893 134.788 50.9173 134.937 51.088C135.087 51.2587 135.164 51.4853 135.169 51.768C135.169 52.0187 135.1 52.2427 134.961 52.44C134.823 52.6373 134.625 52.792 134.369 52.904C134.119 53.016 133.823 53.072 133.481 53.072Z" fill="black"/>
<path id="Organiza&#195;&#167;&#195;&#163;o" d="M182.136 82.056C181.619 82.056 181.141 81.936 180.704 81.696C180.272 81.4507 179.928 81.112 179.672 80.68C179.421 80.2427 179.296 79.752 179.296 79.208C179.296 78.664 179.421 78.176 179.672 77.744C179.928 77.312 180.272 76.976 180.704 76.736C181.141 76.4907 181.619 76.368 182.136 76.368C182.659 76.368 183.136 76.4907 183.568 76.736C184.005 76.976 184.349 77.312 184.6 77.744C184.851 78.176 184.976 78.664 184.976 79.208C184.976 79.752 184.851 80.2427 184.6 80.68C184.349 81.112 184.005 81.4507 183.568 81.696C183.136 81.936 182.659 82.056 182.136 82.056ZM182.136 81.264C182.504 81.264 182.832 81.1813 183.12 81.016C183.408 80.8453 183.632 80.6053 183.792 80.296C183.957 79.9813 184.04 79.6187 184.04 79.208C184.04 78.7973 183.957 78.4373 183.792 78.128C183.632 77.8187 183.408 77.5813 183.12 77.416C182.832 77.2507 182.504 77.168 182.136 77.168C181.768 77.168 181.44 77.2507 181.152 77.416C180.864 77.5813 180.637 77.8187 180.472 78.128C180.312 78.4373 180.232 78.7973 180.232 79.208C180.232 79.6187 180.312 79.9813 180.472 80.296C180.637 80.6053 180.864 80.8453 181.152 81.016C181.44 81.1813 181.768 81.264 182.136 81.264ZM186.785 78.232C186.919 78.008 187.095 77.8347 187.313 77.712C187.537 77.584 187.801 77.52 188.105 77.52V78.464H187.873C187.516 78.464 187.244 78.5547 187.057 78.736C186.876 78.9173 186.785 79.232 186.785 79.68V82H185.873V77.592H186.785V78.232ZM190.72 77.52C191.061 77.52 191.362 77.5893 191.624 77.728C191.89 77.8613 192.098 78.0293 192.248 78.232V77.592H193.168V82.072C193.168 82.4773 193.082 82.8373 192.912 83.152C192.741 83.472 192.493 83.7227 192.168 83.904C191.848 84.0853 191.464 84.176 191.016 84.176C190.418 84.176 189.922 84.0347 189.528 83.752C189.133 83.4747 188.909 83.096 188.856 82.616H189.76C189.829 82.8453 189.976 83.0293 190.2 83.168C190.429 83.312 190.701 83.384 191.016 83.384C191.384 83.384 191.68 83.272 191.904 83.048C192.133 82.824 192.248 82.4987 192.248 82.072V81.336C192.093 81.544 191.882 81.72 191.616 81.864C191.354 82.0027 191.056 82.072 190.72 82.072C190.336 82.072 189.984 81.976 189.664 81.784C189.349 81.5867 189.098 81.3147 188.912 80.968C188.73 80.616 188.64 80.2187 188.64 79.776C188.64 79.3333 188.73 78.9413 188.912 78.6C189.098 78.2587 189.349 77.9947 189.664 77.808C189.984 77.616 190.336 77.52 190.72 77.52ZM192.248 79.792C192.248 79.488 192.184 79.224 192.056 79C191.933 78.776 191.77 78.6053 191.568 78.488C191.365 78.3707 191.146 78.312 190.912 78.312C190.677 78.312 190.458 78.3707 190.256 78.488C190.053 78.6 189.888 78.768 189.76 78.992C189.637 79.2107 189.576 79.472 189.576 79.776C189.576 80.08 189.637 80.3467 189.76 80.576C189.888 80.8053 190.053 80.9813 190.256 81.104C190.464 81.2213 190.682 81.28 190.912 81.28C191.146 81.28 191.365 81.2213 191.568 81.104C191.77 80.9867 191.933 80.816 192.056 80.592C192.184 80.3627 192.248 80.096 192.248 79.792ZM194.062 79.776C194.062 79.3333 194.152 78.9413 194.334 78.6C194.52 78.2587 194.771 77.9947 195.086 77.808C195.406 77.616 195.758 77.52 196.142 77.52C196.488 77.52 196.79 77.5893 197.046 77.728C197.307 77.8613 197.515 78.0293 197.67 78.232V77.592H198.59V82H197.67V81.344C197.515 81.552 197.304 81.7253 197.038 81.864C196.771 82.0027 196.467 82.072 196.126 82.072C195.747 82.072 195.4 81.976 195.086 81.784C194.771 81.5867 194.52 81.3147 194.334 80.968C194.152 80.616 194.062 80.2187 194.062 79.776ZM197.67 79.792C197.67 79.488 197.606 79.224 197.478 79C197.355 78.776 197.192 78.6053 196.99 78.488C196.787 78.3707 196.568 78.312 196.334 78.312C196.099 78.312 195.88 78.3707 195.678 78.488C195.475 78.6 195.31 78.768 195.182 78.992C195.059 79.2107 194.998 79.472 194.998 79.776C194.998 80.08 195.059 80.3467 195.182 80.576C195.31 80.8053 195.475 80.9813 195.678 81.104C195.886 81.2213 196.104 81.28 196.334 81.28C196.568 81.28 196.787 81.2213 196.99 81.104C197.192 80.9867 197.355 80.816 197.478 80.592C197.606 80.3627 197.67 80.096 197.67 79.792ZM202.012 77.52C202.358 77.52 202.668 77.592 202.94 77.736C203.217 77.88 203.433 78.0933 203.588 78.376C203.742 78.6587 203.82 79 203.82 79.4V82H202.916V79.536C202.916 79.1413 202.817 78.84 202.62 78.632C202.422 78.4187 202.153 78.312 201.812 78.312C201.47 78.312 201.198 78.4187 200.996 78.632C200.798 78.84 200.7 79.1413 200.7 79.536V82H199.788V77.592H200.7V78.096C200.849 77.9147 201.038 77.7733 201.268 77.672C201.502 77.5707 201.75 77.52 202.012 77.52ZM205.447 77.008C205.281 77.008 205.143 76.952 205.031 76.84C204.919 76.728 204.863 76.5893 204.863 76.424C204.863 76.2587 204.919 76.12 205.031 76.008C205.143 75.896 205.281 75.84 205.447 75.84C205.607 75.84 205.743 75.896 205.855 76.008C205.967 76.12 206.023 76.2587 206.023 76.424C206.023 76.5893 205.967 76.728 205.855 76.84C205.743 76.952 205.607 77.008 205.447 77.008ZM205.895 77.592V82H204.983V77.592H205.895ZM207.9 81.256H209.9V82H206.844V81.256L208.852 78.336H206.844V77.592H209.9V78.336L207.9 81.256ZM210.554 79.776C210.554 79.3333 210.644 78.9413 210.826 78.6C211.012 78.2587 211.263 77.9947 211.578 77.808C211.898 77.616 212.25 77.52 212.634 77.52C212.98 77.52 213.282 77.5893 213.538 77.728C213.799 77.8613 214.007 78.0293 214.162 78.232V77.592H215.082V82H214.162V81.344C214.007 81.552 213.796 81.7253 213.53 81.864C213.263 82.0027 212.959 82.072 212.618 82.072C212.239 82.072 211.892 81.976 211.578 81.784C211.263 81.5867 211.012 81.3147 210.826 80.968C210.644 80.616 210.554 80.2187 210.554 79.776ZM214.162 79.792C214.162 79.488 214.098 79.224 213.97 79C213.847 78.776 213.684 78.6053 213.482 78.488C213.279 78.3707 213.06 78.312 212.826 78.312C212.591 78.312 212.372 78.3707 212.17 78.488C211.967 78.6 211.802 78.768 211.674 78.992C211.551 79.2107 211.49 79.472 211.49 79.776C211.49 80.08 211.551 80.3467 211.674 80.576C211.802 80.8053 211.967 80.9813 212.17 81.104C212.378 81.2213 212.596 81.28 212.826 81.28C213.06 81.28 213.279 81.2213 213.482 81.104C213.684 80.9867 213.847 80.816 213.97 80.592C214.098 80.3627 214.162 80.096 214.162 79.792ZM218.136 81.304C218.664 81.304 219.013 81.072 219.184 80.608H220.168C220.05 81.0133 219.84 81.3467 219.536 81.608C219.237 81.864 218.861 82.0133 218.408 82.056V82.384C218.717 82.384 218.968 82.456 219.16 82.6C219.352 82.7493 219.448 82.9573 219.448 83.224C219.448 83.4907 219.352 83.7013 219.16 83.856C218.968 84.016 218.725 84.096 218.432 84.096H217.376V83.52H218.248C218.397 83.52 218.509 83.4987 218.584 83.456C218.658 83.4133 218.696 83.336 218.696 83.224C218.696 83.112 218.658 83.0347 218.584 82.992C218.509 82.9493 218.397 82.928 218.248 82.928H217.808V82.048C217.445 82.0053 217.125 81.8853 216.848 81.688C216.57 81.4853 216.354 81.224 216.2 80.904C216.05 80.5787 215.976 80.208 215.976 79.792C215.976 79.3387 216.066 78.9413 216.248 78.6C216.434 78.2533 216.69 77.9867 217.016 77.8C217.341 77.6133 217.714 77.52 218.136 77.52C218.669 77.52 219.109 77.648 219.456 77.904C219.808 78.1547 220.045 78.5147 220.168 78.984H219.184C219.104 78.7653 218.976 78.5947 218.8 78.472C218.624 78.3493 218.402 78.288 218.136 78.288C217.762 78.288 217.464 78.4213 217.24 78.688C217.021 78.9493 216.912 79.3173 216.912 79.792C216.912 80.2667 217.021 80.6373 217.24 80.904C217.464 81.1707 217.762 81.304 218.136 81.304ZM220.773 79.776C220.773 79.3333 220.863 78.9413 221.045 78.6C221.231 78.2587 221.482 77.9947 221.797 77.808C222.117 77.616 222.469 77.52 222.853 77.52C223.199 77.52 223.501 77.5893 223.757 77.728C224.018 77.8613 224.226 78.0293 224.381 78.232V77.592H225.301V82H224.381V81.344C224.226 81.552 224.015 81.7253 223.749 81.864C223.482 82.0027 223.178 82.072 222.837 82.072C222.458 82.072 222.111 81.976 221.797 81.784C221.482 81.5867 221.231 81.3147 221.045 80.968C220.863 80.616 220.773 80.2187 220.773 79.776ZM224.381 79.792C224.381 79.488 224.317 79.224 224.189 79C224.066 78.776 223.903 78.6053 223.701 78.488C223.498 78.3707 223.279 78.312 223.045 78.312C222.81 78.312 222.591 78.3707 222.389 78.488C222.186 78.6 222.021 78.768 221.893 78.992C221.77 79.2107 221.709 79.472 221.709 79.776C221.709 80.08 221.77 80.3467 221.893 80.576C222.021 80.8053 222.186 80.9813 222.389 81.104C222.597 81.2213 222.815 81.28 223.045 81.28C223.279 81.28 223.498 81.2213 223.701 81.104C223.903 80.9867 224.066 80.816 224.189 80.592C224.317 80.3627 224.381 80.096 224.381 79.792ZM221.885 77.136C221.927 76.8267 222.029 76.5947 222.189 76.44C222.349 76.28 222.549 76.2 222.789 76.2C222.89 76.2 222.978 76.216 223.053 76.248C223.127 76.28 223.218 76.328 223.325 76.392C223.405 76.4453 223.471 76.4853 223.525 76.512C223.583 76.5387 223.647 76.552 223.717 76.552C223.807 76.552 223.882 76.5253 223.941 76.472C224.005 76.4133 224.045 76.328 224.061 76.216H224.573C224.53 76.5253 224.429 76.76 224.269 76.92C224.109 77.0747 223.909 77.152 223.669 77.152C223.567 77.152 223.477 77.136 223.397 77.104C223.317 77.0667 223.229 77.016 223.133 76.952C223.037 76.8933 222.962 76.8533 222.909 76.832C222.861 76.8053 222.805 76.792 222.741 76.792C222.65 76.792 222.573 76.8213 222.509 76.88C222.45 76.9387 222.413 77.024 222.397 77.136H221.885ZM228.41 82.072C227.994 82.072 227.618 81.9787 227.282 81.792C226.946 81.6 226.682 81.3333 226.49 80.992C226.298 80.6453 226.202 80.2453 226.202 79.792C226.202 79.344 226.301 78.9467 226.498 78.6C226.696 78.2533 226.965 77.9867 227.306 77.8C227.648 77.6133 228.029 77.52 228.45 77.52C228.872 77.52 229.253 77.6133 229.594 77.8C229.936 77.9867 230.205 78.2533 230.402 78.6C230.6 78.9467 230.698 79.344 230.698 79.792C230.698 80.24 230.597 80.6373 230.394 80.984C230.192 81.3307 229.914 81.6 229.562 81.792C229.216 81.9787 228.832 82.072 228.41 82.072ZM228.41 81.28C228.645 81.28 228.864 81.224 229.066 81.112C229.274 81 229.442 80.832 229.57 80.608C229.698 80.384 229.762 80.112 229.762 79.792C229.762 79.472 229.701 79.2027 229.578 78.984C229.456 78.76 229.293 78.592 229.09 78.48C228.888 78.368 228.669 78.312 228.434 78.312C228.2 78.312 227.981 78.368 227.778 78.48C227.581 78.592 227.424 78.76 227.306 78.984C227.189 79.2027 227.13 79.472 227.13 79.792C227.13 80.2667 227.25 80.6347 227.49 80.896C227.736 81.152 228.042 81.28 228.41 81.28Z" fill="black"/>
</g>
<defs>
<clipPath id="clip0_922_1212">
<rect width="24" height="24" fill="white" transform="translate(108 150)"/>
</clipPath>
</defs>
</svg>
